HIERARCHY
ROOT Hips
{
 OFFSET 0.000000 0.000000 0.000000
 CHANNELS 6 Xposition Yposition Zposition Yrotation Xrotation Zrotation
 JOINT Chest
 {
  OFFSET 0.000000 11.395451 -0.039534
  CHANNELS 3 Yrotation Xrotation Zrotation
  JOINT Chest2
  {
   OFFSET 0.000000 9.398669 0.071813
   CHANNELS 3 Yrotation Xrotation Zrotation
   JOINT Chest3
   {
    OFFSET 0.000000 8.489801 0.000000
    CHANNELS 3 Yrotation Xrotation Zrotation
    JOINT Chest4
    {
     OFFSET 0.000000 8.489801 0.000000
     CHANNELS 3 Yrotation Xrotation Zrotation
     JOINT Neck
     {
      OFFSET 0.000000 12.404889 0.000000
      CHANNELS 3 Yrotation Xrotation Zrotation
      JOINT Head
      {
       OFFSET 0.000000 8.903270 0.092239
       CHANNELS 3 Yrotation Xrotation Zrotation
       End Site
       {
        OFFSET 0.000000 17.592497 0.007158
       }
      }
     }
     JOINT RightCollar
     {
      OFFSET -3.196775 6.966722 0.000000
      CHANNELS 3 Yrotation Xrotation Zrotation
      JOINT RightShoulder
      {
       OFFSET -15.955896 0.000000 0.000000
       CHANNELS 3 Yrotation Xrotation Zrotation
       JOINT RightElbow
       {
        OFFSET -24.792472 0.000000 0.000000
        CHANNELS 3 Yrotation Xrotation Zrotation
        JOINT RightWrist
        {
         OFFSET -20.900115 0.000000 0.025002
         CHANNELS 3 Yrotation Xrotation Zrotation
         End Site
         {
          OFFSET -16.056692 0.000000 0.000000
         }
        }
       }
      }
     }
     JOINT LeftCollar
     {
      OFFSET 3.196775 6.966722 0.000000
      CHANNELS 3 Yrotation Xrotation Zrotation
      JOINT LeftShoulder
      {
       OFFSET 15.955896 0.000000 0.000000
       CHANNELS 3 Yrotation Xrotation Zrotation
       JOINT LeftElbow
       {
        OFFSET 24.792472 0.000000 0.000000
        CHANNELS 3 Yrotation Xrotation Zrotation
        JOINT LeftWrist
        {
         OFFSET 20.900115 0.000000 0.025002
         CHANNELS 3 Yrotation Xrotation Zrotation
         End Site
         {
          OFFSET 16.056692 0.000000 0.000000
         }
        }
       }
      }
     }
    }
   }
  }
 }
 JOINT RightHip
 {
  OFFSET -9.568995 0.193718 0.019767
  CHANNELS 3 Yrotation Xrotation Zrotation
  JOINT RightKnee
  {
   OFFSET 0.000000 -56.649296 0.015402
   CHANNELS 3 Yrotation Xrotation Zrotation
   JOINT RightAnkle
   {
    OFFSET 0.000000 -41.365147 0.021264
    CHANNELS 3 Yrotation Xrotation Zrotation
    JOINT RightToe
    {
     OFFSET 0.000000 -7.465940 17.672538
     CHANNELS 3 Yrotation Xrotation Zrotation
     End Site
     {
      OFFSET 0.000000 -1.736315 7.837145
     }
    }
   }
  }
 }
 JOINT LeftHip
 {
  OFFSET 9.568995 0.193718 0.019767
  CHANNELS 3 Yrotation Xrotation Zrotation
  JOINT LeftKnee
  {
   OFFSET 0.000000 -56.649296 0.015402
   CHANNELS 3 Yrotation Xrotation Zrotation
   JOINT LeftAnkle
   {
    OFFSET 0.000000 -41.365147 0.021264
    CHANNELS 3 Yrotation Xrotation Zrotation
    JOINT LeftToe
    {
     OFFSET 0.000000 -7.465940 17.672538
     CHANNELS 3 Yrotation Xrotation Zrotation
     End Site
     {
      OFFSET 0.000000 -1.736315 7.837145
     }
    }
   }
  }
 }
}
MOTION
Frames: 15
Frame Time: 0.016667
-65.349237 106.308460 254.439510 -26.454161 -7.814162 0.441255 -1.250468 4.747926 -0.556640 -0.549572 2.111681 -0.234373 -0.549572 2.111681 -0.234373 -0.411323 1.583973 -0.173860 -2.457377 16.250949 -1.038483 -4.194516 -6.001585 -1.045710 1.472725 5.384259 10.707396 9.375466 -12.523025 73.414951 -0.142878 0.313016 -0.996812 -3.625820 4.096657 1.907364 -1.721666 5.651170 -7.948715 -0.059464 -13.440798 -73.767706 -2.808667 -0.436941 -0.584802 5.688188 -0.285348 -3.869932 2.057046 15.508892 -0.972118 -1.473548 -0.597444 -0.455423 -3.443349 -8.310457 1.649626 0.000000 0.000000 0.000000 -2.787351 11.138067 1.077896 -0.193269 6.380734 -0.134940 5.436340 -9.603823 -1.963094 0.000000 0.000000 0.000000
-65.306950 106.307184 254.321370 -26.537120 -7.746843 0.432301 -1.238438 4.700277 -0.529389 -0.544575 2.090417 -0.222527 -0.544576 2.090417 -0.222526 -0.407625 1.568012 -0.165013 -2.457829 16.300629 -1.036281 -4.195592 -5.909284 -1.042732 1.409977 5.370637 10.678011 9.313944 -12.405482 73.533514 -0.184058 0.372625 -1.046998 -3.598933 4.106725 1.861713 -1.711172 5.646148 -7.934663 -0.146777 -13.344010 -73.912760 -2.866289 -0.316828 -0.578108 5.621816 -0.289569 -3.812560 2.115030 15.367240 -0.958472 -1.549552 -0.627379 -0.475932 -3.335440 -8.238837 1.665892 -0.000000 0.000000 -0.000000 -2.741620 11.001877 1.100560 -0.181332 6.391221 -0.125435 5.483191 -9.578128 -1.972705 0.000000 0.000000 0.000000
-65.264662 106.305909 254.203230 -26.620076 -7.679537 0.423250 -1.226414 4.652658 -0.502093 -0.539573 2.069167 -0.210658 -0.539573 2.069167 -0.210657 -0.403923 1.552063 -0.156148 -2.458341 16.350310 -1.034131 -4.196762 -5.816982 -1.039820 1.347267 5.356903 10.648614 9.252562 -12.287620 73.651629 -0.225271 0.432051 -1.097419 -3.572000 4.116744 1.816085 -1.700682 5.641145 -7.920600 -0.234302 -13.247698 -74.058062 -2.923637 -0.196595 -0.571343 5.555715 -0.293594 -3.754858 2.172950 15.225577 -0.944839 -1.625516 -0.657359 -0.496484 -3.227556 -8.167238 1.682358 0.000000 0.000000 -0.000000 -2.695966 10.865684 1.123256 -0.169406 6.401714 -0.115921 5.530032 -9.552418 -1.982256 0.000000 -0.000000 0.000000
-65.221462 106.306491 254.091933 -26.710501 -7.623673 0.412472 -1.215986 4.607544 -0.472017 -0.535298 2.049027 -0.197528 -0.535298 2.049027 -0.197528 -0.400768 1.536945 -0.146335 -2.457037 16.402282 -1.035726 -4.193190 -5.720552 -1.044574 1.291742 5.349611 10.620031 9.192631 -12.183662 73.753046 -0.271285 0.491072 -1.150894 -3.542459 4.122333 1.767016 -1.684125 5.630606 -7.909059 -0.320705 -13.156916 -74.205523 -2.959671 -0.112050 -0.553977 5.498290 -0.291775 -3.699512 2.246026 15.100717 -0.926568 -1.697090 -0.688909 -0.512513 -3.130268 -8.097406 1.692950 -0.000000 -0.000000 0.000000 -2.657299 10.749653 1.141594 -0.148254 6.405819 -0.105863 5.580022 -9.526043 -1.988273 0.000000 0.000000 0.000000
-65.176789 106.309917 253.991063 -26.815047 -7.583782 0.398602 -1.205912 4.565166 -0.437336 -0.531218 2.030092 -0.182341 -0.531218 2.030092 -0.182341 -0.397766 1.522729 -0.134976 -2.455530 16.460215 -1.041903 -4.187546 -5.613174 -1.058061 1.246426 5.354863 10.591539 9.131812 -12.101628 73.829860 -0.322052 0.556226 -1.207067 -3.507285 4.119545 1.711085 -1.655206 5.609661 -7.901201 -0.405505 -13.073587 -74.359159 -2.962609 -0.083385 -0.518787 5.453801 -0.278493 -3.647325 2.347392 15.000670 -0.899369 -1.764258 -0.724510 -0.521805 -3.049265 -8.028708 1.695052 -0.000000 -0.000000 0.000000 -2.626930 10.663928 1.153779 -0.112628 6.399223 -0.094583 5.634659 -9.499193 -1.988308 0.000000 0.000000 0.000000
-65.131204 106.315201 253.897035 -26.927066 -7.555351 0.383046 -1.197453 4.525327 -0.399853 -0.527872 2.012281 -0.165885 -0.527873 2.012281 -0.165885 -0.395317 1.509355 -0.122662 -2.452254 16.520431 -1.051869 -4.177264 -5.501677 -1.079252 1.208260 5.366564 10.563807 9.072305 -12.033670 73.890132 -0.377554 0.620999 -1.266334 -3.469425 4.112325 1.651774 -1.620183 5.583210 -7.895814 -0.489022 -12.995868 -74.515019 -2.944409 -0.090548 -0.473109 5.417877 -0.259480 -3.597751 2.463886 14.917379 -0.867597 -1.827065 -0.761645 -0.526547 -2.978852 -7.961750 1.691196 0.000000 -0.000000 0.000000 -2.603497 10.598366 1.161666 -0.067775 6.386238 -0.082725 5.692441 -9.471687 -1.984806 0.000000 -0.000000 0.000000
-65.085477 106.321235 253.805938 -27.034078 -7.536234 0.368353 -1.195946 4.489861 -0.362274 -0.527604 1.996421 -0.149304 -0.527604 1.996421 -0.149304 -0.395175 1.497446 -0.110243 -2.440548 16.574202 -1.066846 -4.149653 -5.402386 -1.112542 1.175274 5.372979 10.539769 9.022176 -11.970244 73.941604 -0.442523 0.665560 -1.332621 -3.435266 4.108124 1.595978 -1.591816 5.560343 -7.891870 -0.571129 -12.923196 -74.663057 -2.919645 -0.109002 -0.428254 5.385941 -0.246156 -3.551484 2.571298 14.843587 -0.839564 -1.881263 -0.794331 -0.528771 -2.912523 -7.900140 1.683009 0.000000 0.000000 0.000000 -2.589878 10.542712 1.166382 -0.020194 6.373411 -0.071726 5.752032 -9.442314 -1.981630 0.000000 0.000000 -0.000000
-65.039768 106.327807 253.716826 -27.136389 -7.528065 0.355577 -1.202176 4.460525 -0.324929 -0.530758 1.983291 -0.132737 -0.530758 1.983292 -0.132737 -0.397598 1.487585 -0.097820 -2.416954 16.617742 -1.090424 -4.097074 -5.322446 -1.165712 1.148233 5.366674 10.522102 8.986316 -11.907182 73.983856 -0.522613 0.678683 -1.411476 -3.407662 4.111049 1.545729 -1.573856 5.543246 -7.889629 -0.652517 -12.856898 -74.800671 -2.888979 -0.143219 -0.386540 5.357092 -0.245211 -3.507963 2.662046 14.778679 -0.818917 -1.924853 -0.819922 -0.528470 -2.844596 -7.845420 1.670646 0.000000 0.000000 0.000000 -2.588201 10.497189 1.167520 0.030880 6.361606 -0.062621 5.815836 -9.410205 -1.980240 0.000000 0.000000 0.000000
-64.993917 106.335130 253.630645 -27.233695 -7.529198 0.343721 -1.215358 4.435575 -0.287508 -0.536993 1.972114 -0.116058 -0.536993 1.972114 -0.116058 -0.402330 1.479188 -0.085302 -2.384882 16.654859 -1.118948 -4.027129 -5.254613 -1.230854 1.126401 5.355127 10.508204 8.959784 -11.848731 74.017398 -0.611942 0.671519 -1.497323 -3.383742 4.116981 1.498984 -1.562560 5.529702 -7.888856 -0.732508 -12.795693 -74.930430 -2.851810 -0.188762 -0.345729 5.332172 -0.250001 -3.467752 2.743767 14.723298 -0.801920 -1.959848 -0.841052 -0.525647 -2.780741 -7.796044 1.653926 0.000000 0.000000 0.000000 -2.596316 10.461574 1.165463 0.084685 6.349956 -0.054368 5.881451 -9.376231 -1.979169 -0.000000 -0.000000 -0.000000
-64.948213 106.342735 253.546315 -27.312605 -7.532554 0.332240 -1.238468 4.411576 -0.251759 -0.547615 1.961367 -0.100026 -0.547615 1.961367 -0.100026 -0.410350 1.471116 -0.073255 -2.347944 16.688238 -1.142738 -3.949926 -5.193611 -1.288795 1.105561 5.348954 10.493084 8.935920 -11.797895 74.051335 -0.697983 0.657823 -1.577360 -3.361340 4.121040 1.456515 -1.559488 5.522172 -7.887837 -0.809029 -12.735037 -75.050014 -2.820626 -0.207645 -0.310203 5.309271 -0.251917 -3.433142 2.815080 14.672103 -0.785811 -1.987999 -0.859659 -0.522350 -2.731477 -7.750992 1.633956 0.000000 0.000000 0.000000 -2.610700 10.424947 1.162529 0.132429 6.342418 -0.045311 5.940333 -9.341785 -1.977903 -0.000000 0.000000 -0.000000
-64.902521 106.350502 253.463904 -27.366520 -7.535650 0.320948 -1.274250 4.387159 -0.217919 -0.563844 1.950442 -0.084725 -0.563844 1.950442 -0.084725 -0.422572 1.462911 -0.061738 -2.306589 16.718162 -1.159244 -3.867181 -5.138859 -1.334662 1.084466 5.353283 10.474994 8.915553 -11.757914 74.087397 -0.778905 0.633484 -1.647983 -3.339393 4.119619 1.418417 -1.568145 5.523262 -7.886315 -0.882204 -12.672268 -75.158741 -2.799298 -0.179668 -0.280481 5.287467 -0.247405 -3.406166 2.873697 14.623436 -0.770135 -2.007636 -0.875862 -0.518994 -2.702625 -7.711216 1.610094 0.000000 0.000000 0.000000 -2.634198 10.382795 1.158226 0.172133 6.341973 -0.033991 5.990432 -9.308047 -1.976405 0.000000 0.000000 0.000000
-64.856977 106.358552 253.383344 -27.402039 -7.540955 0.310031 -1.319955 4.363673 -0.185770 -0.584461 1.939933 -0.070083 -0.584461 1.939933 -0.070083 -0.438081 1.455019 -0.050702 -2.260344 16.744386 -1.170981 -3.777116 -5.090877 -1.373295 1.064328 5.362975 10.455628 8.897861 -11.725527 74.123946 -0.856546 0.602681 -1.712742 -3.318980 4.116356 1.384603 -1.585061 5.530330 -7.884619 -0.951953 -12.609958 -75.257276 -2.783806 -0.124991 -0.255989 5.267690 -0.240042 -3.384767 2.921917 14.578968 -0.755367 -2.020429 -0.889545 -0.515161 -2.688346 -7.675766 1.582911 0.000000 0.000000 0.000000 -2.663961 10.339632 1.153026 0.205774 6.345642 -0.021887 6.033802 -9.273838 -1.974737 -0.000000 0.000000 -0.000000
-64.812279 106.366778 253.303349 -27.425570 -7.548806 0.299480 -1.370307 4.341739 -0.156381 -0.607111 1.930117 -0.056623 -0.607111 1.930117 -0.056623 -0.455112 1.447646 -0.040545 -2.211456 16.768803 -1.175888 -3.684611 -5.046085 -1.400121 1.044610 5.373225 10.435135 8.873725 -11.693940 74.164969 -0.924099 0.591678 -1.769578 -3.301196 4.117252 1.355549 -1.601328 5.537983 -7.881900 -1.015880 -12.551307 -75.345300 -2.774816 -0.066126 -0.239394 5.250833 -0.231893 -3.365110 2.965219 14.538356 -0.740163 -2.033132 -0.902300 -0.511652 -2.681671 -7.640770 1.555326 0.000000 0.000000 0.000000 -2.687935 10.298089 1.150699 0.230483 6.348446 -0.011761 6.068053 -9.237007 -1.972540 0.000000 -0.000000 0.000000
-64.768528 106.375243 253.223320 -27.438643 -7.559202 0.289927 -1.425049 4.321548 -0.130733 -0.631673 1.921083 -0.044782 -0.631673 1.921083 -0.044782 -0.473570 1.440861 -0.031597 -2.160234 16.789946 -1.172220 -3.590846 -5.007188 -1.411777 1.025160 5.382063 10.413231 8.840807 -11.661545 74.212751 -0.979715 0.611877 -1.818752 -3.287570 4.126682 1.333012 -1.614666 5.544707 -7.877765 -1.071868 -12.496403 -75.421357 -2.773283 -0.010924 -0.233242 5.239600 -0.221798 -3.347886 3.006956 14.500935 -0.723824 -2.048711 -0.913711 -0.509661 -2.682009 -7.605036 1.527964 0.000000 -0.000000 0.000000 -2.699644 10.258499 1.152735 0.244628 6.348919 -0.005207 6.090077 -9.196132 -1.969625 0.000000 0.000000 0.000000
-64.725623 106.383886 253.143855 -27.439726 -7.572138 0.280736 -1.484433 4.302885 -0.107866 -0.658268 1.912732 -0.034133 -0.658268 1.912732 -0.034133 -0.493549 1.434588 -0.023537 -2.106361 16.809300 -1.161705 -3.494606 -4.971479 -1.411617 1.006135 5.391457 10.390203 8.801453 -11.629900 74.264975 -1.025440 0.651960 -1.859994 -3.276662 4.140291 1.315172 -1.627355 5.552032 -7.872602 -1.121990 -12.444944 -75.486834 -2.778406 0.048484 -0.234927 5.231252 -0.210921 -3.332469 3.043778 14.467368 -0.707057 -2.064197 -0.924194 -0.508000 -2.689949 -7.569759 1.500174 0.000000 -0.000000 0.000000 -2.705575 10.220529 1.157598 0.249845 6.348525 -0.000652 6.102990 -9.152638 -1.966204 0.000000 0.000000 0.000000
